{
	"asset":{
		"generator":"Khronos glTF Blender I/O v4.1.62",
		"version":"2.0"
	},
	"scene":0,
	"scenes":[
		{
			"name":"Scene",
			"nodes":[
				41
			]
		}
	],
	"nodes":[
		{
			"name":"head0_end",
			"rotation":[
				1.0442454367876053e-07,
				9.953510016202927e-09,
				-1.1641532182693481e-10,
				1
			],
			"translation":[
				2.2351741790771484e-08,
				13.225765228271484,
				3.723427653312683e-06
			]
		},
		{
			"children":[
				0
			],
			"name":"head0",
			"rotation":[
				0.8294132351875305,
				0.018517008051276207,
				0.0205099917948246,
				0.557951807975769
			],
			"scale":[
				1,
				1.0000001192092896,
				1.0000001192092896
			],
			"translation":[
				-3.725290298461914e-08,
				7.54288911819458,
				1.3047829270362854e-06
			]
		},
		{
			"children":[
				1
			],
			"name":"neck1",
			"rotation":[
				0.0659257173538208,
				7.291832936073828e-12,
				-0.0018144809873774648,
				0.9978228807449341
			],
			"scale":[
				1,
				1.0000001192092896,
				1.0000001192092896
			],
			"translation":[
				-5.960464477539063e-08,
				8.715375900268555,
				-1.1315569281578064e-06
			]
		},
		{
			"children":[
				2
			],
			"name":"neck0",
			"rotation":[
				0.04548812657594681,
				0.004976201802492142,
				0.012914111837744713,
				0.998869001865387
			],
			"scale":[
				0.9999999403953552,
				0.9999998807907104,
				0.9999999403953552
			],
			"translation":[
				1.4901161193847656e-08,
				10.243572235107422,
				-1.6437843441963196e-07
			]
		},
		{
			"children":[
				3
			],
			"name":"body_top1",
			"rotation":[
				-0.3183753788471222,
				-0.009344943799078465,
				-0.005697993561625481,
				0.9479015469551086
			],
			"scale":[
				0.9999999403953552,
				1,
				1.0000001192092896
			],
			"translation":[
				2.2351741790771484e-08,
				9.011250495910645,
				-1.7951242625713348e-07
			]
		},
		{
			"name":"leg_front_left_hoof_end",
			"rotation":[
				-4.982576129464178e-08,
				6.060872692614794e-07,
				1.6298146832127713e-08,
				1
			],
			"scale":[
				0.9999999403953552,
				0.9999999403953552,
				1
			],
			"translation":[
				9.5367431640625e-07,
				4.4096550941467285,
				2.384185791015625e-07
			]
		},
		{
			"children":[
				5
			],
			"name":"leg_front_left_hoof",
			"rotation":[
				-0.02124209702014923,
				-0.9749871492385864,
				-0.05037355422973633,
				0.21543297171592712
			],
			"scale":[
				0.9999998807907104,
				1.0000001192092896,
				1
			],
			"translation":[
				-1.1920928955078125e-07,
				6.417559623718262,
				1.7881393432617188e-07
			]
		},
		{
			"children":[
				6
			],
			"name":"leg_front_left_bot0",
			"rotation":[
				0.03845769166946411,
				0.9992589354515076,
				0.0015657420735806227,
				0.0003523068444337696
			],
			"scale":[
				0.9999999403953552,
				0.9999992847442627,
				0.9999999403953552
			],
			"translation":[
				-3.5762786865234375e-07,
				7.4016923904418945,
				-8.642673492431641e-07
			]
		},
		{
			"children":[
				7
			],
			"name":"leg_front_left_top2",
			"rotation":[
				4.999524776394537e-07,
				-0.9486421942710876,
				0.010681873187422752,
				0.31617066264152527
			],
			"scale":[
				1.0000001192092896,
				1.0000004768371582,
				1
			],
			"translation":[
				-2.2482373651655507e-07,
				15.160004615783691,
				-7.02271847785596e-07
			]
		},
		{
			"children":[
				8
			],
			"name":"leg_front_left_top1",
			"rotation":[
				4.3030663476884e-08,
				-0.6925833821296692,
				-0.45292890071868896,
				0.5614122748374939
			],
			"scale":[
				0.9999997615814209,
				0.9999997019767761,
				0.9999999403953552
			],
			"translation":[
				-1.4454126358032227e-06,
				10.519903182983398,
				3.5762786865234375e-07
			]
		},
		{
			"children":[
				9
			],
			"name":"leg_front_left_top0",
			"rotation":[
				0.30323469638824463,
				-0.31511610746383667,
				-0.45188039541244507,
				0.7775311470031738
			],
			"translation":[
				0.005364358425140381,
				8.931178092956543,
				0.2279854416847229
			]
		},
		{
			"name":"leg_front_right_hoof_end",
			"rotation":[
				-1.51805579662323e-07,
				8.82917083799839e-06,
				4.1816383600234985e-07,
				1
			],
			"scale":[
				1,
				1,
				0.9999999403953552
			],
			"translation":[
				-1.3113021850585938e-06,
				4.409650802612305,
				-2.980232238769531e-07
			]
		},
		{
			"children":[
				11
			],
			"name":"leg_front_right_hoof",
			"rotation":[
				-0.02124212682247162,
				0.9749839305877686,
				0.0503736175596714,
				0.2154475599527359
			],
			"scale":[
				1,
				0.9999995231628418,
				1
			],
			"translation":[
				-8.344650268554688e-07,
				6.417551040649414,
				0
			]
		},
		{
			"children":[
				12
			],
			"name":"leg_front_right_bot0",
			"rotation":[
				0.03845746070146561,
				-0.9992589354515076,
				-0.0015658936463296413,
				0.0003552716807462275
			],
			"scale":[
				0.9999998807907104,
				0.9999997615814209,
				1
			],
			"translation":[
				-6.109476089477539e-07,
				7.401686191558838,
				-9.238719940185547e-07
			]
		},
		{
			"children":[
				13
			],
			"name":"leg_front_right_top2",
			"rotation":[
				4.189582512026391e-07,
				0.948643147945404,
				-0.01068155001848936,
				0.31616783142089844
			],
			"scale":[
				0.9999999403953552,
				0.9999997615814209,
				0.9999999403953552
			],
			"translation":[
				-9.83474706117704e-08,
				15.160000801086426,
				-6.121201181485958e-07
			]
		},
		{
			"children":[
				14
			],
			"name":"leg_front_right_top1",
			"rotation":[
				0,
				0.6811264753341675,
				0.4560772180557251,
				0.5727654695510864
			],
			"scale":[
				1.0000001192092896,
				1.0000003576278687,
				1
			],
			"translation":[
				-4.6193599700927734e-07,
				10.623011589050293,
				-2.980232238769531e-07
			]
		},
		{
			"children":[
				15
			],
			"name":"leg_front_right_top0",
			"rotation":[
				0.29206734895706177,
				0.3403637707233429,
				0.4735071659088135,
				0.7580502033233643
			],
			"scale":[
				0.9999999403953552,
				1,
				1
			],
			"translation":[
				0.005364358425140381,
				8.931178092956543,
				0.2279854416847229
			]
		},
		{
			"children":[
				4,
				10,
				16
			],
			"name":"body_top0",
			"rotation":[
				-0.2567569613456726,
				0.0013930610148236156,
				0.008007463999092579,
				0.966441810131073
			],
			"scale":[
				0.9999999403953552,
				1.0000001192092896,
				1
			],
			"translation":[
				-3.725290298461914e-08,
				7.6285271644592285,
				5.960464477539062e-07
			]
		},
		{
			"name":"tail4_end",
			"rotation":[
				-9.313227522511625e-09,
				5.029142471357773e-07,
				-1.3969840395589017e-08,
				1
			],
			"scale":[
				0.9999999403953552,
				0.9999998807907104,
				0.9999998807907104
			],
			"translation":[
				2.384185791015625e-07,
				1.35001802444458,
				-3.933906555175781e-06
			]
		},
		{
			"children":[
				18
			],
			"name":"tail4",
			"rotation":[
				0.18566061556339264,
				-0.9478617310523987,
				0.019562076777219772,
				0.2582743763923645
			],
			"scale":[
				0.9999999403953552,
				0.9999999403953552,
				0.9999999403953552
			],
			"translation":[
				-1.1920928955078125e-07,
				6.227772235870361,
				-3.2633543014526367e-06
			]
		},
		{
			"children":[
				19
			],
			"name":"tail3",
			"rotation":[
				3.6980787854190567e-07,
				2.2039894247427583e-06,
				-1.0628719593341884e-07,
				1
			],
			"scale":[
				1,
				0.9999999403953552,
				0.9999999403953552
			],
			"translation":[
				1.2665987014770508e-07,
				5.998253345489502,
				1.341104507446289e-07
			]
		},
		{
			"children":[
				20
			],
			"name":"tail2",
			"rotation":[
				-0.3312622308731079,
				-0.0008869339944794774,
				0.02073538675904274,
				0.9433104395866394
			],
			"scale":[
				0.9999999403953552,
				1.0000001192092896,
				1
			],
			"translation":[
				2.2351741790771484e-07,
				4.817083358764648,
				-1.9222497940063477e-06
			]
		},
		{
			"children":[
				21
			],
			"name":"tail1",
			"rotation":[
				0.2560928463935852,
				-0.056885138154029846,
				0.006416236516088247,
				0.9649556279182434
			],
			"scale":[
				1,
				1.0000001192092896,
				1.0000001192092896
			],
			"translation":[
				3.990643904216995e-08,
				1.7950927019119263,
				2.413930587863433e-06
			]
		},
		{
			"children":[
				22
			],
			"name":"tail0",
			"rotation":[
				-0.3026229441165924,
				0.044066935777664185,
				-0.004969457630068064,
				0.9520781636238098
			],
			"translation":[
				3.5390257835388184e-07,
				9.686112403869629,
				-1.4901161193847656e-07
			]
		},
		{
			"children":[
				23
			],
			"name":"pelvis",
			"rotation":[
				-0.4242050349712372,
				-0.03186381235718727,
				0.03486330062150955,
				0.9043336510658264
			],
			"scale":[
				0.9999998807907104,
				0.9999998211860657,
				0.9999998211860657
			],
			"translation":[
				0,
				10.4116792678833,
				7.136259227991104e-08
			]
		},
		{
			"name":"leg_hind_right_hoof_end",
			"rotation":[
				1.8044374883174896e-07,
				7.410591933876276e-06,
				-5.3318217396736145e-08,
				1
			],
			"translation":[
				-3.337860107421875e-06,
				4.012773513793945,
				-3.5762786865234375e-07
			]
		},
		{
			"children":[
				25
			],
			"name":"leg_hind_right_hoof",
			"rotation":[
				-0.006561994552612305,
				-0.7166815996170044,
				-0.03763783350586891,
				0.6963532567024231
			],
			"scale":[
				1,
				1.000000238418579,
				1
			],
			"translation":[
				-4.172325134277344e-07,
				9.717799186706543,
				-1.0728836059570312e-06
			]
		},
		{
			"children":[
				26
			],
			"name":"leg_hind_right_bot0",
			"rotation":[
				-0.22474144399166107,
				-0.253880113363266,
				0.007803879212588072,
				0.9407312273979187
			],
			"scale":[
				1,
				1,
				1.0000001192092896
			],
			"translation":[
				1.1920928955078125e-07,
				9.939982414245605,
				0
			]
		},
		{
			"children":[
				27
			],
			"name":"leg_hind_right_top2",
			"rotation":[
				0.38626620173454285,
				-0.28162020444869995,
				0.1154036819934845,
				0.8707298636436462
			],
			"scale":[
				0.9999997615814209,
				0.9999999403953552,
				0.9999998807907104
			],
			"translation":[
				2.1457672119140625e-06,
				8.825451850891113,
				-9.5367431640625e-07
			]
		},
		{
			"children":[
				28
			],
			"name":"leg_hind_right_top1",
			"rotation":[
				0.17606349289417267,
				-0.7529804110527039,
				-0.12191695719957352,
				0.622220516204834
			],
			"scale":[
				1,
				0.9999999403953552,
				1
			],
			"translation":[
				-4.76837158203125e-07,
				10.436921119689941,
				-1.7881393432617188e-07
			]
		},
		{
			"children":[
				29
			],
			"name":"leg_hind_right_top0",
			"rotation":[
				0.2912844121456146,
				-0.6224331855773926,
				0.7224514484405518,
				0.0761198103427887
			],
			"scale":[
				1,
				1,
				1.0000001192092896
			],
			"translation":[
				0,
				10.4116792678833,
				7.136259227991104e-08
			]
		},
		{
			"name":"leg_hind_left_hoof_end",
			"rotation":[
				-1.955777548801052e-07,
				6.0851457419630606e-06,
				4.66126948595047e-07,
				1
			],
			"scale":[
				1,
				1,
				0.9999999403953552
			],
			"translation":[
				1.7881393432617188e-06,
				4.012790679931641,
				2.384185791015625e-07
			]
		},
		{
			"children":[
				31
			],
			"name":"leg_hind_left_hoof",
			"rotation":[
				-0.006561929825693369,
				0.7166738510131836,
				0.03763747587800026,
				0.696361243724823
			],
			"scale":[
				1,
				0.9999998211860657,
				1
			],
			"translation":[
				-8.046627044677734e-07,
				9.717791557312012,
				1.0728836059570312e-06
			]
		},
		{
			"children":[
				32
			],
			"name":"leg_hind_left_bot0",
			"rotation":[
				-0.22474165260791779,
				0.2538829445838928,
				-0.007804854307323694,
				0.9407304525375366
			],
			"scale":[
				0.9999998211860657,
				0.9999998211860657,
				0.9999999403953552
			],
			"translation":[
				-3.5762786865234375e-07,
				9.939971923828125,
				-9.5367431640625e-07
			]
		},
		{
			"children":[
				33
			],
			"name":"leg_hind_left_top2",
			"rotation":[
				0.3862667679786682,
				0.28161779046058655,
				-0.1154022142291069,
				0.8707305788993835
			],
			"scale":[
				1,
				0.9999999403953552,
				1
			],
			"translation":[
				-2.1457672119140625e-06,
				8.825454711914062,
				-4.76837158203125e-07
			]
		},
		{
			"children":[
				34
			],
			"name":"leg_hind_left_top1",
			"rotation":[
				0.19679628312587738,
				0.7575842142105103,
				0.1127835288643837,
				0.6120598316192627
			],
			"scale":[
				1,
				1.0000003576278687,
				1
			],
			"translation":[
				7.152557373046875e-07,
				10.684535026550293,
				4.76837158203125e-07
			]
		},
		{
			"children":[
				35
			],
			"name":"leg_hind_left_top0",
			"rotation":[
				0.2920220196247101,
				0.6217238903045654,
				-0.7188048362731934,
				0.10724779963493347
			],
			"scale":[
				0.9999999403953552,
				1.0000001192092896,
				0.9999999403953552
			],
			"translation":[
				0,
				10.4116792678833,
				7.136259227991104e-08
			]
		},
		{
			"children":[
				24,
				30,
				36
			],
			"name":"body_bot",
			"rotation":[
				0.9996317028999329,
				0.01582138054072857,
				-0.013486072421073914,
				0.017443865537643433
			],
			"scale":[
				1.0000007152557373,
				0.9999999403953552,
				1.0000007152557373
			],
			"translation":[
				1.043081283569336e-07,
				1.4035031199455261e-06,
				1.257285475730896e-06
			]
		},
		{
			"children":[
				17,
				37
			],
			"name":"body",
			"rotation":[
				0.7681311964988708,
				-1.0063355659895024e-07,
				-0.0204835943877697,
				0.639964759349823
			],
			"scale":[
				0.9999999403953552,
				1,
				1.0000001192092896
			],
			"translation":[
				-0.03191068768501282,
				39.441078186035156,
				-9.517444610595703
			]
		},
		{
			"children":[
				38
			],
			"name":"root",
			"rotation":[
				-0.7071031928062439,
				0,
				0,
				0.7071103453636169
			],
			"translation":[
				-0.26808929443359375,
				-0.032947540283203125,
				34.14117431640625
			]
		},
		{
			"mesh":0,
			"name":"model",
			"skin":0
		},
		{
			"children":[
				40,
				39
			],
			"name":"rig",
			"rotation":[
				0.7071068286895752,
				0,
				0,
				0.7071068286895752
			]
		}
	],
	"materials":[
		{
			"doubleSided":true,
			"name":"mat_d7baea72-1241-4e91-8e6a-e3f3179b13b0",
			"pbrMetallicRoughness":{
				"baseColorTexture":{
					"index":0
				},
				"metallicFactor":0,
				"roughnessFactor":0.472953736782074
			}
		}
	],
	"meshes":[
		{
			"name":"model",
			"primitives":[
				{
					"attributes":{
						"POSITION":0,
						"NORMAL":1,
						"TEXCOORD_0":2,
						"JOINTS_0":3,
						"WEIGHTS_0":4
					},
					"indices":5,
					"material":0
				}
			]
		}
	],
	"textures":[
		{
			"sampler":0,
			"source":0
		}
	],
	"images":[
		{
			"bufferView":6,
			"mimeType":"image/jpeg",
			"name":"texture_0"
		}
	],
	"skins":[
		{
			"inverseBindMatrices":6,
			"joints":[
				39,
				38,
				17,
				4,
				3,
				2,
				1,
				0,
				10,
				9,
				8,
				7,
				6,
				5,
				16,
				15,
				14,
				13,
				12,
				11,
				37,
				24,
				23,
				22,
				21,
				20,
				19,
				18,
				30,
				29,
				28,
				27,
				26,
				25,
				36,
				35,
				34,
				33,
				32,
				31
			],
			"name":"rig"
		}
	],
	"accessors":[
		{
			"bufferView":0,
			"componentType":5126,
			"count":11867,
			"max":[
				10.45751953125,
				33.99916458129883,
				35.03643798828125
			],
			"min":[
				-10.993698120117188,
				-34.14117431640625,
				-35.10232925415039
			],
			"type":"VEC3"
		},
		{
			"bufferView":1,
			"componentType":5126,
			"count":11867,
			"type":"VEC3"
		},
		{
			"bufferView":2,
			"componentType":5126,
			"count":11867,
			"type":"VEC2"
		},
		{
			"bufferView":3,
			"componentType":5121,
			"count":11867,
			"type":"VEC4"
		},
		{
			"bufferView":4,
			"componentType":5126,
			"count":11867,
			"type":"VEC4"
		},
		{
			"bufferView":5,
			"componentType":5123,
			"count":59544,
			"type":"SCALAR"
		},
		{
			"bufferView":7,
			"componentType":5126,
			"count":40,
			"type":"MAT4"
		}
	],
	"bufferViews":[
		{
			"buffer":0,
			"byteLength":142404,
			"byteOffset":0,
			"target":34962
		},
		{
			"buffer":0,
			"byteLength":142404,
			"byteOffset":142404,
			"target":34962
		},
		{
			"buffer":0,
			"byteLength":94936,
			"byteOffset":284808,
			"target":34962
		},
		{
			"buffer":0,
			"byteLength":47468,
			"byteOffset":379744,
			"target":34962
		},
		{
			"buffer":0,
			"byteLength":189872,
			"byteOffset":427212,
			"target":34962
		},
		{
			"buffer":0,
			"byteLength":119088,
			"byteOffset":617084,
			"target":34963
		},
		{
			"buffer":0,
			"byteLength":396941,
			"byteOffset":736172
		},
		{
			"buffer":0,
			"byteLength":2560,
			"byteOffset":1133116
		}
	],
	"samplers":[
		{
			"magFilter":9729,
			"minFilter":9987
		}
	],
	"buffers":[
		{
			"byteLength":1135676,
			"uri":"data:application/octet-stream;base64,"
		}
	]
}
